<svg width="389" height="170" viewBox="0 0 389 170" fill="none" xmlns="http://www.w3.org/2000/svg">
<mask id="mask0_849_22764" style="mask-type:luminance" maskUnits="userSpaceOnUse" x="87" y="3" width="231" height="167">
<path d="M317.64 3.81412H87.1709V170H317.64V3.81412Z" fill="white"/>
</mask>
<g mask="url(#mask0_849_22764)">
<path d="M95.305 63.3414L91.3057 58.2332L94.4916 55.7132L98.5586 60.8213L95.305 63.3414Z" fill="url(#paint0_linear_849_22764)"/>
</g>
<mask id="mask1_849_22764" style="mask-type:luminance" maskUnits="userSpaceOnUse" x="87" y="3" width="231" height="167">
<path d="M317.64 3.81412H87.1709V170H317.64V3.81412Z" fill="white"/>
</mask>
<g mask="url(#mask1_849_22764)">
<path d="M224.436 15.3926L227.011 12.0553L229.045 13.6218L226.537 16.9591L224.436 15.3926Z" fill="url(#paint1_linear_849_22764)"/>
</g>
<mask id="mask2_849_22764" style="mask-type:luminance" maskUnits="userSpaceOnUse" x="87" y="3" width="231" height="167">
<path d="M317.64 3.81412H87.1709V170H317.64V3.81412Z" fill="white"/>
</mask>
<g mask="url(#mask2_849_22764)">
<path d="M176.579 94.3309H169.19V96.7829H176.579V94.3309Z" fill="url(#paint2_linear_849_22764)"/>
</g>
<mask id="mask3_849_22764" style="mask-type:luminance" maskUnits="userSpaceOnUse" x="87" y="3" width="231" height="167">
<path d="M317.64 3.81412H87.1709V170H317.64V3.81412Z" fill="white"/>
</mask>
<g mask="url(#mask3_849_22764)">
<path d="M241.314 46.7909L240.975 39.367L243.347 39.2308L243.754 46.6547L241.314 46.7909Z" fill="url(#paint3_linear_849_22764)"/>
</g>
<mask id="mask4_849_22764" style="mask-type:luminance" maskUnits="userSpaceOnUse" x="87" y="3" width="231" height="167">
<path d="M317.64 3.81412H87.1709V170H317.64V3.81412Z" fill="white"/>
</mask>
<g mask="url(#mask4_849_22764)">
<path d="M177.054 12.464L181.934 18.117L180.104 19.6835L175.224 14.0986L177.054 12.464Z" fill="url(#paint4_linear_849_22764)"/>
</g>
<mask id="mask5_849_22764" style="mask-type:luminance" maskUnits="userSpaceOnUse" x="87" y="3" width="231" height="167">
<path d="M317.64 3.81412H87.1709V170H317.64V3.81412Z" fill="white"/>
</mask>
<g mask="url(#mask5_849_22764)">
<path d="M224.436 51.0136L230.401 46.6547L231.824 48.6298L225.859 52.9888L224.436 51.0136Z" fill="url(#paint5_linear_849_22764)"/>
</g>
<mask id="mask6_849_22764" style="mask-type:luminance" maskUnits="userSpaceOnUse" x="87" y="3" width="231" height="167">
<path d="M317.64 3.81412H87.1709V170H317.64V3.81412Z" fill="white"/>
</mask>
<g mask="url(#mask6_849_22764)">
<path d="M277.85 23.1571L272.901 28.6739L271.071 27.0393L276.02 21.5225L277.85 23.1571Z" fill="url(#paint6_linear_849_22764)"/>
</g>
<mask id="mask7_849_22764" style="mask-type:luminance" maskUnits="userSpaceOnUse" x="87" y="3" width="231" height="167">
<path d="M317.64 3.81412H87.1709V170H317.64V3.81412Z" fill="white"/>
</mask>
<g mask="url(#mask7_849_22764)">
<path d="M118.352 53.1931L124.792 56.9391L123.571 59.0505L117.132 55.3045L118.352 53.1931Z" fill="url(#paint7_linear_849_22764)"/>
</g>
<mask id="mask8_849_22764" style="mask-type:luminance" maskUnits="userSpaceOnUse" x="87" y="3" width="231" height="167">
<path d="M317.64 3.81412H87.1709V170H317.64V3.81412Z" fill="white"/>
</mask>
<g mask="url(#mask8_849_22764)">
<path d="M274.528 103.389L281.917 102.981L282.052 105.433L274.664 105.841L274.528 103.389Z" fill="url(#paint8_linear_849_22764)"/>
</g>
<mask id="mask9_849_22764" style="mask-type:luminance" maskUnits="userSpaceOnUse" x="87" y="3" width="231" height="167">
<path d="M317.64 3.81412H87.1709V170H317.64V3.81412Z" fill="white"/>
</mask>
<g mask="url(#mask9_849_22764)">
<path d="M222.402 45.9736L223.148 53.3975L220.708 53.6018L219.962 46.246L222.402 45.9736Z" fill="url(#paint9_linear_849_22764)"/>
</g>
<mask id="mask10_849_22764" style="mask-type:luminance" maskUnits="userSpaceOnUse" x="87" y="3" width="231" height="167">
<path d="M317.64 3.81412H87.1709V170H317.64V3.81412Z" fill="white"/>
</mask>
<g mask="url(#mask10_849_22764)">
<path d="M110.625 105.365L116.658 109.587L115.302 111.631L109.201 107.408L110.625 105.365Z" fill="url(#paint10_linear_849_22764)"/>
</g>
<mask id="mask11_849_22764" style="mask-type:luminance" maskUnits="userSpaceOnUse" x="87" y="3" width="231" height="167">
<path d="M317.64 3.81412H87.1709V170H317.64V3.81412Z" fill="white"/>
</mask>
<g mask="url(#mask11_849_22764)">
<path d="M225.655 29.4231L229.112 25.9495L231.214 29.4912L226.401 30.7853L225.655 29.4231Z" fill="url(#paint11_linear_849_22764)"/>
</g>
<mask id="mask12_849_22764" style="mask-type:luminance" maskUnits="userSpaceOnUse" x="87" y="3" width="231" height="167">
<path d="M317.64 3.81412H87.1709V170H317.64V3.81412Z" fill="white"/>
</mask>
<g mask="url(#mask12_849_22764)">
<path d="M297.304 51.4904L298.863 56.258L294.796 56.4623L295.813 51.6266L297.304 51.4904Z" fill="url(#paint12_linear_849_22764)"/>
</g>
<mask id="mask13_849_22764" style="mask-type:luminance" maskUnits="userSpaceOnUse" x="87" y="3" width="231" height="167">
<path d="M317.64 3.81412H87.1709V170H317.64V3.81412Z" fill="white"/>
</mask>
<g mask="url(#mask13_849_22764)">
<path d="M122.69 5.44874L117.81 4.69955L119.436 0.953552L123.3 4.01846L122.69 5.44874Z" fill="url(#paint13_linear_849_22764)"/>
</g>
<mask id="mask14_849_22764" style="mask-type:luminance" maskUnits="userSpaceOnUse" x="87" y="3" width="231" height="167">
<path d="M317.64 3.81412H87.1709V170H317.64V3.81412Z" fill="white"/>
</mask>
<g mask="url(#mask14_849_22764)">
<path d="M125.401 18.0489C128.587 17.2316 131.57 18.5256 133.196 20.7732C131.841 20.2284 130.417 20.637 129.536 21.5906C128.451 20.637 126.689 19.8197 124.452 20.0922C124.656 19.343 124.994 18.6619 125.401 18.0489Z" fill="url(#paint14_linear_849_22764)"/>
</g>
<mask id="mask15_849_22764" style="mask-type:luminance" maskUnits="userSpaceOnUse" x="87" y="3" width="231" height="167">
<path d="M317.64 3.81412H87.1709V170H317.64V3.81412Z" fill="white"/>
</mask>
<g mask="url(#mask15_849_22764)">
<path d="M220.029 51.7629C219.487 55.0321 217.182 57.2797 214.471 57.8927C215.487 56.871 215.691 55.3726 215.216 54.2148C216.504 53.6018 217.996 52.3077 218.606 50.1282C219.148 50.5369 219.622 51.0818 220.029 51.7629Z" fill="url(#paint15_linear_849_22764)"/>
</g>
<mask id="mask16_849_22764" style="mask-type:luminance" maskUnits="userSpaceOnUse" x="87" y="3" width="231" height="167">
<path d="M317.64 3.81412H87.1709V170H317.64V3.81412Z" fill="white"/>
</mask>
<g mask="url(#mask16_849_22764)">
<path d="M261.853 17.8446C258.735 18.7981 255.684 17.7084 253.922 15.5289C255.278 16.0056 256.701 15.5289 257.582 14.5753C258.735 15.4608 260.497 16.21 262.734 15.8013C262.531 16.5505 262.259 17.2316 261.853 17.8446Z" fill="url(#paint16_linear_849_22764)"/>
</g>
<mask id="mask17_849_22764" style="mask-type:luminance" maskUnits="userSpaceOnUse" x="87" y="3" width="231" height="167">
<path d="M317.64 3.81412H87.1709V170H317.64V3.81412Z" fill="white"/>
</mask>
<g mask="url(#mask17_849_22764)">
<path d="M154.346 47.7444C157.803 48.2212 160.04 50.4007 161.057 52.4439C160.379 52.1715 159.633 52.2396 159.023 52.4439C157.803 51.0818 155.363 49.7196 152.177 50.4007C152.719 49.3109 153.465 48.4255 154.346 47.7444Z" fill="url(#paint17_linear_849_22764)"/>
</g>
<mask id="mask18_849_22764" style="mask-type:luminance" maskUnits="userSpaceOnUse" x="87" y="3" width="231" height="167">
<path d="M317.64 3.81412H87.1709V170H317.64V3.81412Z" fill="white"/>
</mask>
<g mask="url(#mask18_849_22764)">
<path d="M308.014 13.3494C306.184 16.3462 303.269 17.504 301.032 17.6402C301.507 17.0954 301.846 16.4824 301.913 15.8013C303.676 15.1883 305.913 13.5537 306.523 10.3526C307.201 11.1699 307.743 12.2596 308.014 13.3494Z" fill="url(#paint18_linear_849_22764)"/>
</g>
<mask id="mask19_849_22764" style="mask-type:luminance" maskUnits="userSpaceOnUse" x="87" y="3" width="231" height="167">
<path d="M317.64 3.81412H87.1709V170H317.64V3.81412Z" fill="white"/>
</mask>
<g mask="url(#mask19_849_22764)">
<path d="M174.342 39.4351C172.512 42.4319 169.597 43.5898 167.36 43.726C167.835 43.1811 168.174 42.5681 168.242 41.887C170.004 41.2741 172.241 39.6394 172.851 36.4383C173.529 37.2556 174.071 38.3454 174.342 39.4351Z" fill="url(#paint19_linear_849_22764)"/>
</g>
<mask id="mask20_849_22764" style="mask-type:luminance" maskUnits="userSpaceOnUse" x="87" y="3" width="231" height="167">
<path d="M317.64 3.81412H87.1709V170H317.64V3.81412Z" fill="white"/>
</mask>
<g mask="url(#mask20_849_22764)">
<path d="M246.872 55.1002C243.483 54.2829 241.449 51.831 240.636 49.7196C241.314 50.0601 241.991 50.1282 242.669 49.992C243.754 51.4904 246.059 53.125 249.244 52.7164C248.634 53.6699 247.821 54.4872 246.872 55.1002Z" fill="url(#paint20_linear_849_22764)"/>
</g>
<mask id="mask21_849_22764" style="mask-type:luminance" maskUnits="userSpaceOnUse" x="87" y="3" width="231" height="167">
<path d="M317.64 3.81412H87.1709V170H317.64V3.81412Z" fill="white"/>
</mask>
<g mask="url(#mask21_849_22764)">
<path d="M158.752 4.76765C160.921 1.97518 163.904 1.08977 166.141 1.22599C165.598 1.70275 165.259 2.31573 165.124 2.99682C163.294 3.40547 160.921 4.83576 159.972 7.96877C159.294 7.01525 158.888 5.92551 158.752 4.76765Z" fill="url(#paint21_linear_849_22764)"/>
</g>
<mask id="mask22_849_22764" style="mask-type:luminance" maskUnits="userSpaceOnUse" x="87" y="3" width="231" height="167">
<path d="M317.64 3.81412H87.1709V170H317.64V3.81412Z" fill="white"/>
</mask>
<g mask="url(#mask22_849_22764)">
<path d="M267.072 5.58494C269.241 2.79248 272.224 1.90706 274.461 2.04328C273.919 2.52004 273.58 3.13302 273.444 3.81411C271.614 4.22276 269.241 5.65305 268.292 8.78607C267.615 7.83254 267.208 6.7428 267.072 5.58494Z" fill="url(#paint22_linear_849_22764)"/>
</g>
<mask id="mask23_849_22764" style="mask-type:luminance" maskUnits="userSpaceOnUse" x="87" y="3" width="231" height="167">
<path d="M317.64 3.81412H87.1709V170H317.64V3.81412Z" fill="white"/>
</mask>
<g mask="url(#mask23_849_22764)">
<path d="M308.014 127.364C306.184 130.361 303.269 131.518 301.032 131.655C301.507 131.11 301.846 130.497 301.913 129.816C303.676 129.203 305.913 127.568 306.523 124.367C307.201 125.184 307.743 126.274 308.014 127.364Z" fill="url(#paint23_linear_849_22764)"/>
</g>
<mask id="mask24_849_22764" style="mask-type:luminance" maskUnits="userSpaceOnUse" x="87" y="3" width="231" height="167">
<path d="M317.64 3.81412H87.1709V170H317.64V3.81412Z" fill="white"/>
</mask>
<g mask="url(#mask24_849_22764)">
<path d="M163.7 27.7885C163.497 24.2468 165.191 21.6587 166.954 20.2284C166.818 20.9776 167.022 21.6587 167.293 22.2036C166.208 23.7019 165.327 26.3582 166.615 29.355C165.598 29.0826 164.581 28.5377 163.7 27.7885Z" fill="url(#paint24_linear_849_22764)"/>
</g>
<defs>
<linearGradient id="paint0_linear_849_22764" x1="92.913" y1="57.1111" x2="97.2077" y2="62.2673" gradientUnits="userSpaceOnUse">
<stop offset="1.1e-07" stop-color="#FF3C9E"/>
<stop offset="0.1688" stop-color="#F83693"/>
<stop offset="0.4621" stop-color="#E62677"/>
<stop offset="0.8425" stop-color="#C90C49"/>
<stop offset="1" stop-color="#BB0034"/>
</linearGradient>
<linearGradient id="paint1_linear_849_22764" x1="227.935" y1="12.8881" x2="225.415" y2="16.3548" gradientUnits="userSpaceOnUse">
<stop offset="1.1e-07" stop-color="#FF3C9E"/>
<stop offset="0.1688" stop-color="#F83693"/>
<stop offset="0.4621" stop-color="#E62677"/>
<stop offset="0.8425" stop-color="#C90C49"/>
<stop offset="1" stop-color="#BB0034"/>
</linearGradient>
<linearGradient id="paint2_linear_849_22764" x1="171.039" y1="93.2528" x2="174.19" y2="97.2036" gradientUnits="userSpaceOnUse">
<stop stop-color="#C62DFF"/>
<stop offset="0.2058" stop-color="#CD38FA"/>
<stop offset="0.5633" stop-color="#E154ED"/>
<stop offset="1" stop-color="#FF7FD9"/>
</linearGradient>
<linearGradient id="paint3_linear_849_22764" x1="244.56" y1="41.0347" x2="240.762" y2="44.3627" gradientUnits="userSpaceOnUse">
<stop stop-color="#C62DFF"/>
<stop offset="0.2058" stop-color="#CD38FA"/>
<stop offset="0.5633" stop-color="#E154ED"/>
<stop offset="1" stop-color="#FF7FD9"/>
</linearGradient>
<linearGradient id="paint4_linear_849_22764" x1="178.025" y1="18.9961" x2="178.956" y2="14.0202" gradientUnits="userSpaceOnUse">
<stop offset="3.4e-07" stop-color="#FFF069"/>
<stop offset="0.0996618" stop-color="#FFE570"/>
<stop offset="0.2729" stop-color="#FFC983"/>
<stop offset="0.4991" stop-color="#FF9BA2"/>
<stop offset="0.7663" stop-color="#FF5BCC"/>
<stop offset="1" stop-color="#FF1EF5"/>
</linearGradient>
<linearGradient id="paint5_linear_849_22764" x1="230.952" y1="50.5945" x2="226.094" y2="49.2489" gradientUnits="userSpaceOnUse">
<stop offset="3.4e-07" stop-color="#FFF069"/>
<stop offset="0.0996618" stop-color="#FFE570"/>
<stop offset="0.2729" stop-color="#FFC983"/>
<stop offset="0.4991" stop-color="#FF9BA2"/>
<stop offset="0.7663" stop-color="#FF5BCC"/>
<stop offset="1" stop-color="#FF1EF5"/>
</linearGradient>
<linearGradient id="paint6_linear_849_22764" x1="271.54" y1="24.9005" x2="276.57" y2="25.2006" gradientUnits="userSpaceOnUse">
<stop offset="2.3e-07" stop-color="#07FF23"/>
<stop offset="0.1607" stop-color="#06F421"/>
<stop offset="0.4399" stop-color="#05D81B"/>
<stop offset="0.8019" stop-color="#02AA12"/>
<stop offset="1" stop-color="#008E0C"/>
</linearGradient>
<linearGradient id="paint7_linear_849_22764" x1="121.379" y1="59.062" x2="120.632" y2="54.0549" gradientUnits="userSpaceOnUse">
<stop offset="2.3e-07" stop-color="#07FF23"/>
<stop offset="0.1607" stop-color="#06F421"/>
<stop offset="0.4399" stop-color="#05D81B"/>
<stop offset="0.8019" stop-color="#02AA12"/>
<stop offset="1" stop-color="#008E0C"/>
</linearGradient>
<linearGradient id="paint8_linear_849_22764" x1="286.2" y1="103.614" x2="270.879" y2="105.166" gradientUnits="userSpaceOnUse">
<stop offset="2.3e-07" stop-color="#FFD552"/>
<stop offset="0.0857628" stop-color="#F4D24F"/>
<stop offset="0.235" stop-color="#D8CA47"/>
<stop offset="0.4299" stop-color="#A9BD3B"/>
<stop offset="0.663" stop-color="#69AB29"/>
<stop offset="0.9255" stop-color="#189513"/>
<stop offset="1" stop-color="#008E0C"/>
</linearGradient>
<linearGradient id="paint9_linear_849_22764" x1="219.432" y1="51.8676" x2="223.056" y2="48.3488" gradientUnits="userSpaceOnUse">
<stop stop-color="#9DE2FF"/>
<stop offset="0.1147" stop-color="#93D7FC"/>
<stop offset="0.314" stop-color="#7ABBF3"/>
<stop offset="0.5743" stop-color="#508DE5"/>
<stop offset="0.8821" stop-color="#184DD2"/>
<stop offset="1" stop-color="#0033CA"/>
</linearGradient>
<linearGradient id="paint10_linear_849_22764" x1="113.143" y1="111.464" x2="112.807" y2="106.412" gradientUnits="userSpaceOnUse">
<stop stop-color="#9DE2FF"/>
<stop offset="0.1147" stop-color="#93D7FC"/>
<stop offset="0.314" stop-color="#7ABBF3"/>
<stop offset="0.5743" stop-color="#508DE5"/>
<stop offset="0.8821" stop-color="#184DD2"/>
<stop offset="1" stop-color="#0033CA"/>
</linearGradient>
<linearGradient id="paint11_linear_849_22764" x1="225.649" y1="28.341" x2="231.187" y2="28.341" gradientUnits="userSpaceOnUse">
<stop offset="1.1e-07" stop-color="#FFD243"/>
<stop offset="0.2139" stop-color="#FEC73A"/>
<stop offset="0.5855" stop-color="#FBAB21"/>
<stop offset="1" stop-color="#F78400"/>
</linearGradient>
<linearGradient id="paint12_linear_849_22764" x1="298.307" y1="52.0253" x2="295.756" y2="56.9647" gradientUnits="userSpaceOnUse">
<stop offset="1.1e-07" stop-color="#00DEFF"/>
<stop offset="0.1417" stop-color="#00D6F4"/>
<stop offset="0.3879" stop-color="#00C2D8"/>
<stop offset="0.7069" stop-color="#00A1AA"/>
<stop offset="1" stop-color="#007F7A"/>
</linearGradient>
<linearGradient id="paint13_linear_849_22764" x1="121.788" y1="6.07977" x2="118.51" y2="1.59525" gradientUnits="userSpaceOnUse">
<stop offset="1.1e-07" stop-color="#00DEFF"/>
<stop offset="0.1417" stop-color="#00D6F4"/>
<stop offset="0.3879" stop-color="#00C2D8"/>
<stop offset="0.7069" stop-color="#00A1AA"/>
<stop offset="1" stop-color="#007F7A"/>
</linearGradient>
<linearGradient id="paint14_linear_849_22764" x1="131.617" y1="20.3978" x2="122.125" y2="18.0701" gradientUnits="userSpaceOnUse">
<stop offset="1.1e-07" stop-color="#3CE6FF"/>
<stop offset="0.1369" stop-color="#38DBFF"/>
<stop offset="0.375" stop-color="#2DBFFF"/>
<stop offset="0.6856" stop-color="#1B91FF"/>
<stop offset="1" stop-color="#075BFF"/>
</linearGradient>
<linearGradient id="paint15_linear_849_22764" x1="215.435" y1="56.5601" x2="221.35" y2="48.745" gradientUnits="userSpaceOnUse">
<stop offset="1.1e-07" stop-color="#3CE6FF"/>
<stop offset="0.1369" stop-color="#38DBFF"/>
<stop offset="0.375" stop-color="#2DBFFF"/>
<stop offset="0.6856" stop-color="#1B91FF"/>
<stop offset="1" stop-color="#075BFF"/>
</linearGradient>
<linearGradient id="paint16_linear_849_22764" x1="255.546" y1="15.8463" x2="265.144" y2="17.6897" gradientUnits="userSpaceOnUse">
<stop offset="1.1e-07" stop-color="#3CE6FF"/>
<stop offset="0.1369" stop-color="#38DBFF"/>
<stop offset="0.375" stop-color="#2DBFFF"/>
<stop offset="0.6856" stop-color="#1B91FF"/>
<stop offset="1" stop-color="#075BFF"/>
</linearGradient>
<linearGradient id="paint17_linear_849_22764" x1="151.788" y1="47.2698" x2="159.404" y2="52.6841" gradientUnits="userSpaceOnUse">
<stop offset="1.1e-07" stop-color="#FF3C9E"/>
<stop offset="0.1688" stop-color="#F83693"/>
<stop offset="0.4621" stop-color="#E62677"/>
<stop offset="0.8425" stop-color="#C90C49"/>
<stop offset="1" stop-color="#BB0034"/>
</linearGradient>
<linearGradient id="paint18_linear_849_22764" x1="309.452" y1="11.1524" x2="301.38" y2="15.8531" gradientUnits="userSpaceOnUse">
<stop stop-color="#C62DFF"/>
<stop offset="0.2058" stop-color="#CD38FA"/>
<stop offset="0.5633" stop-color="#E154ED"/>
<stop offset="1" stop-color="#FF7FD9"/>
</linearGradient>
<linearGradient id="paint19_linear_849_22764" x1="175.78" y1="37.2382" x2="167.708" y2="41.9389" gradientUnits="userSpaceOnUse">
<stop stop-color="#60008E"/>
<stop offset="0.2251" stop-color="#6B0095"/>
<stop offset="0.6147" stop-color="#8700A6"/>
<stop offset="1" stop-color="#A900BB"/>
</linearGradient>
<linearGradient id="paint20_linear_849_22764" x1="249.37" y1="55.792" x2="242.365" y2="49.6007" gradientUnits="userSpaceOnUse">
<stop offset="3.4e-07" stop-color="#0005BB"/>
<stop offset="0.1183" stop-color="#0610BF"/>
<stop offset="0.324" stop-color="#152CCB"/>
<stop offset="0.5926" stop-color="#2D5ADE"/>
<stop offset="0.9104" stop-color="#4F9AF7"/>
<stop offset="1" stop-color="#59ADFF"/>
</linearGradient>
<linearGradient id="paint21_linear_849_22764" x1="157.054" y1="6.80779" x2="165.56" y2="2.9568" gradientUnits="userSpaceOnUse">
<stop offset="3.4e-07" stop-color="#0005BB"/>
<stop offset="0.1183" stop-color="#0610BF"/>
<stop offset="0.324" stop-color="#152CCB"/>
<stop offset="0.5926" stop-color="#2D5ADE"/>
<stop offset="0.9104" stop-color="#4F9AF7"/>
<stop offset="1" stop-color="#59ADFF"/>
</linearGradient>
<linearGradient id="paint22_linear_849_22764" x1="265.374" y1="7.62519" x2="273.88" y2="3.77403" gradientUnits="userSpaceOnUse">
<stop stop-color="#60008E"/>
<stop offset="0.2251" stop-color="#6B0095"/>
<stop offset="0.6147" stop-color="#8700A6"/>
<stop offset="1" stop-color="#A900BB"/>
</linearGradient>
<linearGradient id="paint23_linear_849_22764" x1="306.519" y1="126.741" x2="302.773" y2="130.469" gradientUnits="userSpaceOnUse">
<stop offset="1.1e-07" stop-color="#FFD243"/>
<stop offset="0.2139" stop-color="#FEC73A"/>
<stop offset="0.5855" stop-color="#FBAB21"/>
<stop offset="1" stop-color="#F78400"/>
</linearGradient>
<linearGradient id="paint24_linear_849_22764" x1="165.272" y1="27.4296" x2="166.181" y2="22.2114" gradientUnits="userSpaceOnUse">
<stop offset="1.1e-07" stop-color="#FFD243"/>
<stop offset="0.2139" stop-color="#FEC73A"/>
<stop offset="0.5855" stop-color="#FBAB21"/>
<stop offset="1" stop-color="#F78400"/>
</linearGradient>
</defs>
</svg>
